<?xml version="1.0" encoding="UTF-8" standalone="no"?>
<!-- Created with Inkscape (http://www.inkscape.org/) -->

<svg
   xmlns:dc="http://purl.org/dc/elements/1.1/"
   xmlns:cc="http://creativecommons.org/ns#"
   xmlns:rdf="http://www.w3.org/1999/02/22-rdf-syntax-ns#"
   xmlns:svg="http://www.w3.org/2000/svg"
   xmlns="http://www.w3.org/2000/svg"
   xmlns:xlink="http://www.w3.org/1999/xlink"
   xmlns:sodipodi="http://sodipodi.sourceforge.net/DTD/sodipodi-0.dtd"
   xmlns:inkscape="http://www.inkscape.org/namespaces/inkscape"
   width="640"
   height="640"
   id="svg2816"
   version="1.1"
   inkscape:version="0.47 r22583"
   sodipodi:docname="GPlatesVector.eps"
   inkscape:export-filename="/home/james/Desktop/GPlatesVector_1280x1280.png"
   inkscape:export-xdpi="180"
   inkscape:export-ydpi="180">
  <defs
     id="defs2818">
    <linearGradient
       id="linearGradient3701">
      <stop
         style="stop-color:#191610;stop-opacity:0.99607843;"
         offset="0"
         id="stop3703" />
      <stop
         id="stop3711"
         offset="0.17832167"
         style="stop-color:#cab88c;stop-opacity:1;" />
      <stop
         style="stop-color:#9d8c69;stop-opacity:0.99607843;"
         offset="0.4914788"
         id="stop3713" />
      <stop
         id="stop3723"
         offset="0.71551263"
         style="stop-color:#fcf7f2;stop-opacity:1;" />
      <stop
         style="stop-color:#fcf7f2;stop-opacity:1;"
         offset="1"
         id="stop3705" />
    </linearGradient>
    <linearGradient
       id="linearGradient3693">
      <stop
         style="stop-color:#000000;stop-opacity:1;"
         offset="0"
         id="stop3695" />
      <stop
         style="stop-color:#000000;stop-opacity:0;"
         offset="1"
         id="stop3697" />
    </linearGradient>
    <inkscape:perspective
       sodipodi:type="inkscape:persp3d"
       inkscape:vp_x="0 : 32 : 1"
       inkscape:vp_y="0 : 1000 : 0"
       inkscape:vp_z="64 : 32 : 1"
       inkscape:persp3d-origin="32 : 21.333333 : 1"
       id="perspective2824" />
    <inkscape:perspective
       id="perspective2834"
       inkscape:persp3d-origin="0.5 : 0.33333333 : 1"
       inkscape:vp_z="1 : 0.5 : 1"
       inkscape:vp_y="0 : 1000 : 0"
       inkscape:vp_x="0 : 0.5 : 1"
       sodipodi:type="inkscape:persp3d" />
    <linearGradient
       inkscape:collect="always"
       xlink:href="#linearGradient3701"
       id="linearGradient3699"
       x1="319.60938"
       y1="587.0625"
       x2="319.60938"
       y2="53.71875"
       gradientUnits="userSpaceOnUse" />
    <linearGradient
       inkscape:collect="always"
       xlink:href="#linearGradient3701"
       id="linearGradient3721"
       x1="863.63879"
       y1="292.84467"
       x2="863.63879"
       y2="123.86395"
       gradientUnits="userSpaceOnUse" />
    <filter
       id="filter3989"
       inkscape:label="Drop shadow"
       width="1.5"
       height="1.5"
       x="-.25"
       y="-.25">
      <feGaussianBlur
         id="feGaussianBlur3991"
         in="SourceAlpha"
         stdDeviation="14.000000"
         result="blur" />
      <feColorMatrix
         id="feColorMatrix3993"
         result="bluralpha"
         type="matrix"
         values="1 0 0 0 0 0 1 0 0 0 0 0 1 0 0 0 0 0 0.900000 0 " />
      <feOffset
         id="feOffset3995"
         in="bluralpha"
         dx="-0.000000"
         dy="-0.000000"
         result="offsetBlur" />
      <feMerge
         id="feMerge3997">
        <feMergeNode
           id="feMergeNode3999"
           in="offsetBlur" />
        <feMergeNode
           id="feMergeNode4001"
           in="SourceGraphic" />
      </feMerge>
    </filter>
    <filter
       id="filter4269"
       inkscape:label="Drop shadow"
       width="1.5"
       height="1.5"
       x="-.25"
       y="-.25">
      <feGaussianBlur
         id="feGaussianBlur4271"
         in="SourceAlpha"
         stdDeviation="3.000000"
         result="blur" />
      <feColorMatrix
         id="feColorMatrix4273"
         result="bluralpha"
         type="matrix"
         values="1 0 0 0 0 0 1 0 0 0 0 0 1 0 0 0 0 0 0.900000 0 " />
      <feOffset
         id="feOffset4275"
         in="bluralpha"
         dx="-0.000000"
         dy="-0.000000"
         result="offsetBlur" />
      <feMerge
         id="feMerge4277">
        <feMergeNode
           id="feMergeNode4279"
           in="offsetBlur" />
        <feMergeNode
           id="feMergeNode4281"
           in="SourceGraphic" />
      </feMerge>
    </filter>
  </defs>
  <sodipodi:namedview
     id="base"
     pagecolor="#ffffff"
     bordercolor="#666666"
     borderopacity="1.0"
     inkscape:pageopacity="0.0"
     inkscape:pageshadow="2"
     inkscape:zoom="0.70710678"
     inkscape:cx="315.41003"
     inkscape:cy="318.86292"
     inkscape:current-layer="layer4"
     showgrid="true"
     inkscape:document-units="px"
     inkscape:grid-bbox="true"
     inkscape:window-width="1280"
     inkscape:window-height="748"
     inkscape:window-x="0"
     inkscape:window-y="25"
     inkscape:window-maximized="1" />
  <metadata
     id="metadata2821">
    <rdf:RDF>
      <cc:Work
         rdf:about="">
        <dc:format>image/svg+xml</dc:format>
        <dc:type
           rdf:resource="http://purl.org/dc/dcmitype/StillImage" />
        <dc:title></dc:title>
      </cc:Work>
    </rdf:RDF>
  </metadata>
  <g
     id="layer1"
     inkscape:label="background"
     inkscape:groupmode="layer"
     transform="translate(0,576)"
     style="display:none"
     sodipodi:insensitive="true">
    <image
       y="-560"
       x="0"
       id="image2836"
       height="640"
       width="640"
       xlink:href="file:///home/james/Downloads/GPlates_icon_160x160_hexbg.png" />
  </g>
  <g
     inkscape:groupmode="layer"
     id="layer2"
     inkscape:label="Shapes"
     style="opacity:0.53284673;display:none">
    <path
       sodipodi:type="star"
       style="fill:#ffffff;fill-opacity:1;fill-rule:evenodd;stroke:#000000;stroke-width:1px;stroke-linecap:butt;stroke-linejoin:miter;stroke-opacity:1"
       id="path2845"
       sodipodi:sides="6"
       sodipodi:cx="319.61227"
       sodipodi:cy="320.38773"
       sodipodi:r1="296.44562"
       sodipodi:r2="256.72943"
       sodipodi:arg1="0"
       sodipodi:arg2="0.52359878"
       inkscape:flatsided="true"
       inkscape:rounded="0"
       inkscape:randomized="0"
       d="m 616.05789,320.38773 -148.22281,256.72943 -296.44561,0 L 23.166656,320.38773 171.38947,63.65829 l 296.44561,0 148.22281,256.72944 z" />
    <path
       style="font-size:medium;font-style:normal;font-variant:normal;font-weight:normal;font-stretch:normal;text-indent:0;text-align:start;text-decoration:none;line-height:normal;letter-spacing:normal;word-spacing:normal;text-transform:none;direction:ltr;block-progression:tb;writing-mode:lr-tb;text-anchor:start;color:#000000;fill:#000000;fill-opacity:1;fill-rule:evenodd;stroke:none;stroke-width:15.89999962;marker:none;visibility:visible;display:inline;overflow:visible;enable-background:accumulate;font-family:Andale Mono;-inkscape-font-specification:Andale Mono"
       d="M 171.375,55.71875 164.5,59.6875 16.28125,316.40625 l 0,7.96875 148.21875,256.71875 6.875,3.96875 296.46875,0 6.875,-3.96875 148.21875,-256.71875 0,-7.96875 -148.21875,-256.71875 -6.875,-3.96875 -296.46875,0 z m 4.625,15.875 287.21875,0 24.32099,44.53269 -16.6912,44.53268 47.30196,5.99537 4.73587,9.53841 -16.12377,45.24731 45.5342,4.22761 4.73588,8.12421 -19.30576,46.30797 47.65552,5.64181 21.49256,34.63319 -143.625,248.78125 -287.28125,0 L 32.375,320.375 176,71.59375 z"
       id="path2847"
       sodipodi:nodetypes="ccccccccccccccccccccccccccccc" />
    <g
       transform="matrix(3.513424,0,0,3.0483879,-2721.7403,-313.27791)"
       style="font-size:144px;font-style:normal;font-variant:normal;font-weight:bold;font-stretch:normal;opacity:0.75113124;fill:#000000;fill-opacity:1;stroke:none;display:inline;font-family:Bitstream Charter;-inkscape-font-specification:Andale Mono Bold"
       id="flowRoot3645">
      <path
         d="m 878.70837,218.63899 0,7.056 2.25963,0.72 2.304,2.016 0,21.66701 c -3.744,0.288 -6.48,0.432 -7.92,0.432 -22.17598,0 -35.712,-15.12003 -35.712,-41.04 0,-25.19997 13.24802,-40.176 34.704,-40.176 4.176,0 7.77938,1.54011 11.66738,3.12411 l 6.57165,5.38035 0.88595,13.45977 7.38115,0 0.85387,-26.28423 c -10.65599,-3.168 -20.88001,-4.752 -30.384,-4.752 -31.96797,0 -52.56,19.72803 -52.56,49.248 0,29.95197 20.44803,50.688 50.688,50.688 10.51199,0 22.59112,-2.50806 33.67911,-6.39606 l 0,-25.84301 0.88089,-1.52394 4.50959,-0.72 0,-7.056 -29.80922,0"
         id="path3654"
         sodipodi:nodetypes="cccccssscccccssscccccc" />
    </g>
    <g
       id="g3658"
       style="font-size:144px;font-style:normal;font-variant:normal;font-weight:bold;font-stretch:normal;fill:none;stroke:#000000;stroke-width:1.24455476;stroke-miterlimit:4;stroke-opacity:1;stroke-dasharray:none;display:inline;font-family:Bitstream Charter;-inkscape-font-specification:Andale Mono Bold"
       transform="matrix(3.513424,0,0,3.0483879,-2721.7403,-313.27791)">
      <path
         sodipodi:nodetypes="cccccssscccccssscccccc"
         id="path3660"
         d="m 878.70837,218.63899 0,7.056 2.25963,0.72 2.304,2.016 0,21.66701 c -3.744,0.288 -6.48,0.432 -7.92,0.432 -22.17598,0 -35.712,-15.12003 -35.712,-41.04 0,-25.19997 13.24802,-40.176 34.704,-40.176 4.176,0 7.77938,1.54011 11.66738,3.12411 l 6.57165,5.38035 0.88595,13.45977 7.38115,0 0.85387,-26.28423 c -10.65599,-3.168 -20.88001,-4.752 -30.384,-4.752 -31.96797,0 -52.56,19.72803 -52.56,49.248 0,29.95197 20.44803,50.688 50.688,50.688 10.51199,0 22.59112,-2.50806 33.67911,-6.39606 l 0,-25.84301 0.88089,-1.52394 4.50959,-0.72 0,-7.056 -29.80922,0"
         style="fill:none;stroke:#000000;stroke-width:1.24455476;stroke-miterlimit:4;stroke-opacity:1;stroke-dasharray:none" />
    </g>
  </g>
  <g
     inkscape:groupmode="layer"
     id="layer4"
     inkscape:label="OpaqueHexBG"
     style="display:inline">
    <path
       d="m 616.05789,320.38773 -148.22281,256.72943 -296.44561,0 L 23.166656,320.38773 171.38947,63.65829 l 296.44561,0 148.22281,256.72944 z"
       inkscape:randomized="0"
       inkscape:rounded="0"
       inkscape:flatsided="true"
       sodipodi:arg2="0.52359878"
       sodipodi:arg1="0"
       sodipodi:r2="256.72943"
       sodipodi:r1="296.44562"
       sodipodi:cy="320.38773"
       sodipodi:cx="319.61227"
       sodipodi:sides="6"
       id="path4284"
       style="opacity:1;fill:#ffffff;fill-opacity:1;fill-rule:evenodd;stroke:#dedede;stroke-width:1px;stroke-linecap:butt;stroke-linejoin:miter;stroke-opacity:1;display:inline"
       sodipodi:type="star" />
  </g>
  <g
     inkscape:groupmode="layer"
     id="layer3"
     inkscape:label="Goldbits"
     style="display:inline">
    <path
       sodipodi:nodetypes="ccccccccccccccccccccccccccccc"
       id="path3684"
       d="M 171.375,55.71875 164.5,59.6875 16.28125,316.40625 l 0,7.96875 148.21875,256.71875 6.875,3.96875 296.46875,0 6.875,-3.96875 148.21875,-256.71875 0,-7.96875 -148.21875,-256.71875 -6.875,-3.96875 -296.46875,0 z m 4.625,15.875 287.21875,0 24.32099,44.53269 -16.6912,44.53268 47.30196,5.99537 4.73587,9.53841 -16.12377,45.24731 45.5342,4.22761 4.73588,8.12421 -19.30576,46.30797 47.65552,5.64181 21.49256,34.63319 -143.625,248.78125 -287.28125,0 L 32.375,320.375 176,71.59375 z"
       style="font-size:medium;font-style:normal;font-variant:normal;font-weight:normal;font-stretch:normal;text-indent:0;text-align:start;text-decoration:none;line-height:normal;letter-spacing:normal;word-spacing:normal;text-transform:none;direction:ltr;block-progression:tb;writing-mode:lr-tb;text-anchor:start;color:#000000;fill:url(#linearGradient3699);fill-opacity:1;fill-rule:evenodd;stroke:#000000;stroke-width:4;stroke-miterlimit:4;stroke-opacity:1;stroke-dasharray:none;marker:none;visibility:visible;display:inline;overflow:visible;filter:url(#filter3989);enable-background:accumulate;font-family:Andale Mono;-inkscape-font-specification:Andale Mono" />
    <g
       transform="matrix(3.513424,0,0,3.0483879,-2721.7403,-313.27791)"
       style="font-size:144px;font-style:normal;font-variant:normal;font-weight:bold;font-stretch:normal;fill:url(#linearGradient3721);fill-opacity:1;stroke:#000000;stroke-width:1.22224867;stroke-miterlimit:4;stroke-opacity:1;stroke-dasharray:none;display:inline;filter:url(#filter4269);font-family:Bitstream Charter;-inkscape-font-specification:Andale Mono Bold"
       id="g3686">
      <path
         style="fill:url(#linearGradient3721);fill-opacity:1;stroke:#000000;stroke-width:1.22224867;stroke-miterlimit:4;stroke-opacity:1;stroke-dasharray:none"
         d="m 878.70837,218.63899 0,7.056 2.25963,0.72 2.304,2.016 0,21.66701 c -3.744,0.288 -6.48,0.432 -7.92,0.432 -22.17598,0 -35.712,-15.12003 -35.712,-41.04 0,-25.19997 13.24802,-40.176 34.704,-40.176 4.176,0 7.77938,1.54011 11.66738,3.12411 l 6.57165,5.38035 0.88595,13.45977 7.38115,0 0.85387,-26.28423 c -10.65599,-3.168 -20.88001,-4.752 -30.384,-4.752 -31.96797,0 -52.56,19.72803 -52.56,49.248 0,29.95197 20.44803,50.688 50.688,50.688 10.51199,0 22.59112,-2.50806 33.67911,-6.39606 l 0,-25.84301 0.88089,-1.52394 4.50959,-0.72 0,-7.056 -29.80922,0"
         id="path3688"
         sodipodi:nodetypes="cccccssscccccssscccccc" />
    </g>
  </g>
</svg>
