<?xml version="1.0" encoding="UTF-8" standalone="no"?>
<!-- Created with Inkscape (http://www.inkscape.org/) -->

<svg
   xmlns:dc="http://purl.org/dc/elements/1.1/"
   xmlns:cc="http://creativecommons.org/ns#"
   xmlns:rdf="http://www.w3.org/1999/02/22-rdf-syntax-ns#"
   xmlns:svg="http://www.w3.org/2000/svg"
   xmlns="http://www.w3.org/2000/svg"
   xmlns:xlink="http://www.w3.org/1999/xlink"
   xmlns:sodipodi="http://sodipodi.sourceforge.net/DTD/sodipodi-0.dtd"
   xmlns:inkscape="http://www.inkscape.org/namespaces/inkscape"
   width="696.54529"
   height="149.96394"
   id="svg2"
   version="1.1"
   inkscape:version="0.47 r22583"
   sodipodi:docname="GPlatesTitleVector.svg">
  <defs
     id="defs4">
    <inkscape:perspective
       sodipodi:type="inkscape:persp3d"
       inkscape:vp_x="0 : 526.18109 : 1"
       inkscape:vp_y="0 : 1000 : 0"
       inkscape:vp_z="744.09448 : 526.18109 : 1"
       inkscape:persp3d-origin="372.04724 : 350.78739 : 1"
       id="perspective10" />
    <inkscape:perspective
       id="perspective2824"
       inkscape:persp3d-origin="0.5 : 0.33333333 : 1"
       inkscape:vp_z="1 : 0.5 : 1"
       inkscape:vp_y="0 : 1000 : 0"
       inkscape:vp_x="0 : 0.5 : 1"
       sodipodi:type="inkscape:persp3d" />
    <filter
       y="-0.25"
       x="-0.25"
       height="1.5"
       width="1.5"
       inkscape:label="Drop shadow"
       id="filter4269"
       color-interpolation-filters="sRGB">
      <feGaussianBlur
         result="blur"
         stdDeviation="3.000000"
         in="SourceAlpha"
         id="feGaussianBlur4271" />
      <feColorMatrix
         values="1 0 0 0 0 0 1 0 0 0 0 0 1 0 0 0 0 0 0.900000 0 "
         type="matrix"
         result="bluralpha"
         id="feColorMatrix4273" />
      <feOffset
         result="offsetBlur"
         dy="-0.000000"
         dx="-0.000000"
         in="bluralpha"
         id="feOffset4275" />
      <feMerge
         id="feMerge4277">
        <feMergeNode
           in="offsetBlur"
           id="feMergeNode4279" />
        <feMergeNode
           in="SourceGraphic"
           id="feMergeNode4281" />
      </feMerge>
    </filter>
    <filter
       y="-0.25"
       x="-0.25"
       height="1.5"
       width="1.5"
       inkscape:label="Drop shadow"
       id="filter3989"
       color-interpolation-filters="sRGB">
      <feGaussianBlur
         result="blur"
         stdDeviation="14.000000"
         in="SourceAlpha"
         id="feGaussianBlur3991" />
      <feColorMatrix
         values="1 0 0 0 0 0 1 0 0 0 0 0 1 0 0 0 0 0 0.900000 0 "
         type="matrix"
         result="bluralpha"
         id="feColorMatrix3993" />
      <feOffset
         result="offsetBlur"
         dy="-0.000000"
         dx="-0.000000"
         in="bluralpha"
         id="feOffset3995" />
      <feMerge
         id="feMerge3997">
        <feMergeNode
           in="offsetBlur"
           id="feMergeNode3999" />
        <feMergeNode
           in="SourceGraphic"
           id="feMergeNode4001" />
      </feMerge>
    </filter>
    <linearGradient
       gradientUnits="userSpaceOnUse"
       y2="123.86395"
       x2="863.63879"
       y1="292.84467"
       x1="863.63879"
       id="linearGradient3721"
       xlink:href="#linearGradient3701"
       inkscape:collect="always" />
    <linearGradient
       gradientUnits="userSpaceOnUse"
       y2="53.71875"
       x2="319.60938"
       y1="587.0625"
       x1="319.60938"
       id="linearGradient3699"
       xlink:href="#linearGradient3701"
       inkscape:collect="always" />
    <inkscape:perspective
       sodipodi:type="inkscape:persp3d"
       inkscape:vp_x="0 : 0.5 : 1"
       inkscape:vp_y="0 : 1000 : 0"
       inkscape:vp_z="1 : 0.5 : 1"
       inkscape:persp3d-origin="0.5 : 0.33333333 : 1"
       id="perspective2834" />
    <inkscape:perspective
       id="perspective2824-4"
       inkscape:persp3d-origin="32 : 21.333333 : 1"
       inkscape:vp_z="64 : 32 : 1"
       inkscape:vp_y="0 : 1000 : 0"
       inkscape:vp_x="0 : 32 : 1"
       sodipodi:type="inkscape:persp3d" />
    <linearGradient
       id="linearGradient3693">
      <stop
         id="stop3695"
         offset="0"
         style="stop-color:#000000;stop-opacity:1;" />
      <stop
         id="stop3697"
         offset="1"
         style="stop-color:#000000;stop-opacity:0;" />
    </linearGradient>
    <linearGradient
       id="linearGradient3701">
      <stop
         id="stop3703"
         offset="0"
         style="stop-color:#191610;stop-opacity:0.99607843;" />
      <stop
         style="stop-color:#cab88c;stop-opacity:1;"
         offset="0.17832167"
         id="stop3711" />
      <stop
         id="stop3713"
         offset="0.4914788"
         style="stop-color:#9d8c69;stop-opacity:0.99607843;" />
      <stop
         style="stop-color:#fcf7f2;stop-opacity:1;"
         offset="0.71551263"
         id="stop3723" />
      <stop
         id="stop3705"
         offset="1"
         style="stop-color:#fcf7f2;stop-opacity:1;" />
    </linearGradient>
    <linearGradient
       inkscape:collect="always"
       xlink:href="#linearGradient3701"
       id="linearGradient3724"
       x1="370.52884"
       y1="166.80849"
       x2="370.52884"
       y2="18.544544"
       gradientUnits="userSpaceOnUse" />
  </defs>
  <sodipodi:namedview
     id="base"
     pagecolor="#ffffff"
     bordercolor="#666666"
     borderopacity="1.0"
     inkscape:pageopacity="0.0"
     inkscape:pageshadow="2"
     inkscape:zoom="0.7"
     inkscape:cx="394.17237"
     inkscape:cy="-160.41797"
     inkscape:document-units="px"
     inkscape:current-layer="layer1"
     showgrid="false"
     inkscape:window-width="1258"
     inkscape:window-height="757"
     inkscape:window-x="323"
     inkscape:window-y="130"
     inkscape:window-maximized="0" />
  <metadata
     id="metadata7">
    <rdf:RDF>
      <cc:Work
         rdf:about="">
        <dc:format>image/svg+xml</dc:format>
        <dc:type
           rdf:resource="http://purl.org/dc/dcmitype/StillImage" />
        <dc:title></dc:title>
      </cc:Work>
    </rdf:RDF>
  </metadata>
  <g
     inkscape:label="Layer 1"
     inkscape:groupmode="layer"
     id="layer1"
     transform="translate(-22.256196,-17.694545)">
    <path
       style="fill:url(#linearGradient3724);fill-opacity:1;stroke:#000000;stroke-width:2.70000005;stroke-miterlimit:4;stroke-opacity:1;stroke-dasharray:none"
       d="m 347.16518,19.049107 c -1.37379,-0.08102 -5.96366,0.9244 -11.09375,2.4375 -5.86296,1.72927 -14.37271,3.66814 -18.90625,4.3125 l -8.25,1.15625 0,3.5 0,3.46875 5.84375,0.625 c 3.20424,0.34424 6.35424,1.16674 7,1.8125 0.87131,0.87131 1.15625,15.85765 1.15625,58.09375 0,64.174063 0.57808,59.762443 -7.90625,60.718753 -3.81768,0.43031 -4.72455,0.93719 -5.21875,2.90625 -0.32873,1.30975 -0.12702,2.94464 0.4375,3.625 0.77085,0.92903 7.34757,1.2138 26.375,1.125 l 25.3125,-0.125 0,-3.375 c 0,-3.27234 -0.11286,-3.3813 -4.875,-4.0625 -8.74909,-1.2515 -8.06917,4.44644 -8.375,-69.593753 -0.14923,-36.12731 -0.63948,-66.04573 -1.09375,-66.5 -0.0568,-0.05678 -0.20999,-0.11343 -0.40625,-0.125 z m -242.9375,4.5625 c -51.763396,0.96276 -82.819986,29.18717 -80.500001,74.3125 0.639917,12.446853 2.98517,21.363053 8.34375,31.625003 10.620089,20.33798 33.019701,33.65697 60.34375,35.875 9.586121,0.77815 19.773931,0.40717 31.500001,-1.125 8.56144,-1.11866 29.62853,-6.83971 34.53125,-9.375 l 2.96875,-1.53125 0.0312,-17.25 c 0.008,-9.47338 0.34592,-17.70174 0.75,-18.3125 0.40408,-0.61075 2.18125,-1.86538 3.96875,-2.78125 2.57201,-1.31783 3.25,-2.28727 3.25,-4.65625 l 0,-3 -22.25,0.28125 -22.25,0.25 -0.3125,3.78125 c -0.28388,3.43764 -0.0225,3.8976 2.78125,4.875 1.69581,0.59116 3.52411,1.90026 4.0625,2.90625 0.53839,1.00599 0.96875,7.89527 0.96875,15.34375 0,12.94814 -0.0988,13.61421 -2.25,15 -6.69896,4.31541 -25.24438,5.93463 -36.031251,3.125 -18.757729,-4.88576 -33.10561,-20.62739 -38.34375,-42.0625 -2.14755,-8.78803 -2.40808,-29.663143 -0.46875,-37.468753 2.35991,-9.49838 6.69052,-17.6876 12.5625,-23.84375 9.96625,-10.44857 20.75841,-14.50905 38.531251,-14.46875 11.91423,0.02701 20.39165,1.82927 29.59375,6.3125 8.89024,4.3313 9.81524,5.74168 10.40625,15.375 l 0.5,8.125 4.21875,0.3125 c 4.81974,0.35022 4.07464,2.2843 6.875,-18.09375 0.89016,-6.47769 1.3821,-12.37356 1.09375,-13.125 -0.63898,-1.66515 -13.50019,-6.06683 -23.6875,-8.09375 -4.11136,-0.81801 -13.37385,-1.76658 -20.5625,-2.125 -3.63108,-0.18104 -7.17411,-0.25168 -10.625,-0.1875 z m 84.1875,2.71875 0,3.4375 c 0,3.8915 1.18427,4.65625 7,4.65625 2.25899,0 4.75557,0.77195 6.15625,1.90625 l 2.34375,1.9375 0,56.03125 c 0,63.956073 0.76912,58.933763 -9.15625,60.000003 -5.49632,0.59045 -5.85088,0.80193 -6.15625,3.46875 -0.17852,1.55896 -0.12096,3.35896 0.125,4 0.32925,0.85811 8.57942,1.10402 31.3125,0.96875 16.98256,-0.10105 31.2125,-0.2135 31.625,-0.25 0.4125,-0.0365 0.75,-1.61673 0.75,-3.53125 0,-3.88262 -0.41013,-4.0784 -9.8125,-4.8125 -9.32842,-0.72833 -8.6474,3.85006 -8.96875,-59.406253 -0.16669,-32.81177 0.11543,-56.02168 0.65625,-56.5625 1.55802,-1.55802 12.3894,-2.03565 18.28125,-0.8125 11.71984,2.43303 17.35375,10.89797 17.34375,26.0625 -0.005,7.30688 -0.3997,9.32578 -2.84375,14.3125 -4.17922,8.52709 -8.6611,11.1875 -18.75,11.1875 -4.25525,0 -8.03741,0.31966 -8.40625,0.6875 -0.36885,0.36783 0.10344,2.26354 1.03125,4.21875 2.0556,4.33189 5.06028,5.10282 16.84375,4.34375 23.78818,-1.53241 41.625,-19.38002 41.625,-41.65625 0,-13.287 -5.97977,-22.52889 -17.59375,-27.1875 -5.8505,-2.34676 -6.32364,-2.37182 -49.65625,-2.6875 l -43.75,-0.3125 z m 321.78125,10.71875 c -1.99046,0.10383 -5.26248,1.38663 -10.4375,3.46875 -5.95353,2.39535 -11.40625,4.75118 -12.09375,5.25 -0.9031,0.65526 -1.25,5.02814 -1.25,15.75 l 0,14.84375 -5.90625,4 c -3.24958,2.20676 -6.09936,4.61126 -6.34375,5.3125 -1.00158,2.87385 0.52553,3.75 6.375,3.75 l 5.875,0 0.0312,28.750003 c 0.003,17.66612 0.42236,30.2921 1.09375,32.75 2.27395,8.32473 7.96964,13.13 17.34375,14.5625 4.79103,0.73214 8.66145,0.55661 14.78125,-0.65625 3.40066,-0.67396 13.744,-12.0106 13.75,-15.0625 0.004,-2.06886 -0.29985,-2.13779 -7.78125,-1.625 -7.29262,0.49985 -7.98479,0.37714 -10.75,-2 l -2.96875,-2.53125 -0.3125,-26.75 c -0.24751,-21.238483 -0.0417,-26.901863 1,-27.562503 0.7214,-0.45749 5.26764,-0.83575 10.09375,-0.84375 8.60188,-0.01501 8.8086,-0.07829 9.8125,-2.71875 0.56324,-1.48144 0.8831,-4.29394 0.71875,-6.25 l -0.3125,-3.5625 -10.5,0 -10.5,0 -0.28125,-9.375 c -0.15918,-5.16599 0.16023,-13.49748 0.71875,-18.5 0.90307,-8.08869 1.16118,-11.17305 -2.15625,-11 z m -88.34375,31.34375 c -8.2113,0.16902 -17.1664,2.60232 -25.8125,7.4375 -3.58863,2.00687 -7.20944,4.33444 -8.0625,5.1875 -2.15792,2.15795 -2.11744,11.72632 0.0625,13.90625 2.55257,2.55257 4.67435,1.39152 7.375,-4 2.37706,-4.74552 2.77709,-5.04172 7.6875,-5.875 6.64206,-1.12715 13.30185,-0.10151 17.5,2.6875 6.78241,4.50585 10.77891,18.999543 5.5625,20.156253 -1.2375,0.27441 -7.65,1.66588 -14.25,3.09375 -18.43934,3.98923 -27.48588,8.76278 -31.75,16.75 -1.8653,3.49395 -2.21675,5.76956 -2.21875,13.6875 -0.002,8.55817 0.24936,9.98681 2.71875,14.1875 3.33688,5.67636 8.16518,8.81996 15.0625,9.8125 2.85684,0.41112 5.8625,0.61755 6.6875,0.46875 5.85903,-1.05671 8.31998,-2.32708 15.625,-8.03125 4.53084,-3.53794 8.72427,-6.4375 9.3125,-6.4375 0.62971,0 1.0625,2.26169 1.0625,5.5 0,3.682 0.41322,5.52925 1.25,5.59375 8.17224,0.62926 34.08231,-0.0198 34.9375,-0.875 0.59161,-0.59161 0.80602,-2.15622 0.46875,-3.5 -0.47823,-1.90544 -1.47116,-2.57817 -4.5,-3.0625 -6.71059,-1.07307 -6.60215,-0.46282 -7.15625,-36.125 l -0.5,-32.187503 -3.03125,-4.90625 c -5.6102,-9.109 -16.03013,-13.71577 -28.03125,-13.46875 z m 168.0625,0.125 c -8.3015,-0.02271 -12.52751,1.59357 -22.875,7.84375 -9.56036,5.77473 -14.83794,11.10972 -18.1875,18.4375 -6.00978,13.147463 -5.4324,35.400633 1.25,49.031253 6.18332,12.61262 17.10211,19.80874 32.8125,21.625 3.3,0.38151 6.45,0.7542 7,0.8125 3.82618,0.40538 16.72648,-2.2941 23.5,-4.90625 7.88242,-3.03978 8.20892,-3.28636 10.78125,-8.53125 2.08331,-4.24778 2.3969,-5.63435 1.4375,-6.59375 -0.95939,-0.95939 -1.92302,-0.95906 -4.46875,0.0937 -13.84144,5.72425 -21.817,6.54911 -30.96875,3.125 -10.20232,-3.81717 -18.02455,-14.79147 -18.1875,-25.53125 l -0.0937,-6 22,-0.625 c 19.56777,-0.55187 30.79224,-1.67482 33.59375,-3.40625 0.50746,-0.31363 0.90625,-4.07603 0.90625,-8.34375 0,-22.701033 -12.40057,-35.934523 -34.65625,-36.937503 -1.38173,-0.06227 -2.65782,-0.09051 -3.84375,-0.09375 z m 96.25,0.09375 c -7.72578,0.06228 -15.93285,0.85705 -20.40625,2.25 -12.63388,3.93399 -20.20553,13.08598 -21.09375,25.5 -0.54829,7.663073 0.76115,12.911673 4.46875,17.875003 4.13219,5.53172 9.13622,8.00987 23.84375,11.8125 7.67641,1.98474 15.18431,4.22314 16.6875,5 5.94854,3.07427 7.3446,11.94178 2.875,18.21875 -5.96647,8.37915 -25.19147,8.24766 -34.46875,-0.25 -2.862,-2.6215 -3.65625,-4.10541 -3.65625,-6.84375 0,-6.60064 -1.08241,-9.73685 -3.625,-10.375 -4.28708,-1.07599 -5.04774,0.76377 -5.8125,14.1875 -0.49099,8.61843 -0.37867,12.96689 0.375,13.875 1.48888,1.79399 12.02641,4.6664 20.5625,5.59375 18.30145,1.98824 34.82153,-2.88223 43.5625,-12.8125 9.64567,-10.95805 10.69081,-27.94496 2.3125,-37.21875 -4.80233,-5.3156 -9.79905,-7.48955 -25.4375,-11.0625 -7.38253,-1.68669 -14.7875,-3.86201 -16.4375,-4.812503 -3.88919,-2.24039 -5.85612,-6.36335 -5.0625,-10.59375 1.45456,-7.75348 11.16414,-11.8908 22.84375,-9.71875 8.56893,1.59356 10.97934,3.61859 12.34375,10.40625 0.61034,3.03631 1.42788,6.03392 1.8125,6.65625 0.93836,1.5183 5.07189,1.43408 6.3125,-0.125 0.54706,-0.6875 1.31165,-5.99272 1.6875,-11.8125 0.79673,-12.33651 0.93735,-12.11086 -8.5,-14.53125 -3.45303,-0.8856 -9.17856,-1.26719 -15.1875,-1.21875 z m -99.71875,11.03125 c 5.62921,-0.13934 9.98389,2.42327 12.75,7.46875 2.60658,4.75448 4.55926,17.108863 3,19.062503 -0.71707,0.89845 -5.17591,1.25 -15.78125,1.25 -10.59953,0 -15.0255,-0.35205 -15.75,-1.25 -0.64754,-0.80257 -0.70888,-3.44712 -0.15625,-7.406253 1.79553,-12.86354 6.03637,-18.31003 14.8125,-19.0625 0.38649,-0.03314 0.74972,-0.05321 1.125,-0.0625 z m -159.375,37.187503 c 0.7575,0.0173 1.16015,0.28071 1.4375,0.71875 0.4871,0.76931 0.89825,5.83359 0.90625,11.28125 l 0,9.90625 -3.8125,3.625 c -2.10021,1.99789 -5.61765,4.20805 -7.84375,4.875 l 0,-0.0312 c -6.43603,1.92829 -10.05323,1.20385 -13.03125,-2.6875 -1.92729,-2.51836 -2.66347,-9.92876 -1.40625,-14.125 1.61134,-5.37815 5.90348,-8.51402 15.78125,-11.59375 4.45644,-1.38944 6.70626,-1.99751 7.96875,-1.96875 z"
       id="path2830" />
  </g>
</svg>
